<svg width="49" height="48" viewBox="0 0 49 48" fill="none" xmlns="http://www.w3.org/2000/svg">
<path d="M36.6001 48H12.6001C6.0001 48 0.600098 42.6 0.600098 36V12C0.600098 5.4 6.0001 0 12.6001 0H36.6001C43.2001 0 48.6001 5.4 48.6001 12V36C48.6001 42.6 43.2001 48 36.6001 48Z" fill="#72A1F7"/>
<path d="M28.6001 20.75C28.1901 20.75 27.8501 20.41 27.8501 20V16.5C27.8501 15.42 27.1801 14.75 26.1001 14.75H23.1001C22.0201 14.75 21.3501 15.42 21.3501 16.5V20C21.3501 20.41 21.0101 20.75 20.6001 20.75C20.1901 20.75 19.8501 20.41 19.8501 20V16.5C19.8501 14.59 21.1901 13.25 23.1001 13.25H26.1001C28.0101 13.25 29.3501 14.59 29.3501 16.5V20C29.3501 20.41 29.0101 20.75 28.6001 20.75Z" fill="white"/>
<path d="M20.6001 29.78C20.1901 29.78 19.8501 29.44 19.8501 29.03C19.8501 28.61 20.1901 28.28 20.6001 28.28H32.3601C32.6601 28.28 32.8901 28.02 32.8601 27.72L32.1801 22.03C31.9401 20.09 31.6001 18.5 28.2001 18.5H21.0001C17.6001 18.5 17.2601 20.09 17.0301 22.03L16.1301 29.53C15.8401 31.99 16.6001 34 20.1101 34H29.0901C32.2501 34 33.1801 32.37 33.1301 30.25C33.1201 29.98 32.9001 29.78 32.6301 29.78H20.6001Z" fill="white"/>
</svg>
