<?xml version="1.0" standalone="no"?><!DOCTYPE svg PUBLIC "-//W3C//DTD SVG 1.1//EN" "http://www.w3.org/Graphics/SVG/1.1/DTD/svg11.dtd"><svg t="1746762681691" class="icon" viewBox="0 0 1024 1024" version="1.1" xmlns="http://www.w3.org/2000/svg" p-id="7393" xmlns:xlink="http://www.w3.org/1999/xlink" width="512" height="512"><path d="M443.733333 307.2v136.533333h-136.533333c-18.773333 0-34.133333-15.36-34.133333-34.133333v-102.4c0-18.773333 15.36-34.133333 34.133333-34.133333h102.4c18.773333 0 34.133333 15.36 34.133333 34.133333z" fill="#3399FF" p-id="7394"></path><path d="M716.8 273.066667h-102.4c-18.773333 0-34.133333 15.36-34.133333 34.133333v136.533333h136.533333c18.773333 0 34.133333-15.36 34.133333-34.133333v-102.4c0-18.773333-15.36-34.133333-34.133333-34.133333z m0 307.2h-136.533333v136.533333c0 18.773333 15.36 34.133333 34.133333 34.133333h102.4c18.773333 0 34.133333-15.36 34.133333-34.133333v-102.4c0-18.773333-15.36-34.133333-34.133333-34.133333z m0-307.2h-102.4c-18.773333 0-34.133333 15.36-34.133333 34.133333v136.533333h136.533333c18.773333 0 34.133333-15.36 34.133333-34.133333v-102.4c0-18.773333-15.36-34.133333-34.133333-34.133333z m0 307.2h-136.533333v136.533333c0 18.773333 15.36 34.133333 34.133333 34.133333h102.4c18.773333 0 34.133333-15.36 34.133333-34.133333v-102.4c0-18.773333-15.36-34.133333-34.133333-34.133333z m34.133333-580.266667H273.066667C122.88 0 0 122.88 0 273.066667v477.866666c0 150.186667 122.88 273.066667 273.066667 273.066667h477.866666c150.186667 0 273.066667-122.88 273.066667-273.066667V273.066667c0-150.186667-122.88-273.066667-273.066667-273.066667zM477.866667 716.8c0 37.546667-30.72 68.266667-68.266667 68.266667h-102.4c-37.546667 0-68.266667-30.72-68.266667-68.266667v-102.4c0-37.546667 30.72-68.266667 68.266667-68.266667h170.666667v170.666667z m0-238.933333H307.2c-37.546667 0-68.266667-30.72-68.266667-68.266667v-102.4c0-37.546667 30.72-68.266667 68.266667-68.266667h102.4c37.546667 0 68.266667 30.72 68.266667 68.266667v170.666667z m307.2 238.933333c0 37.546667-30.72 68.266667-68.266667 68.266667h-102.4c-37.546667 0-68.266667-30.72-68.266667-68.266667V546.133333h170.666667c37.546667 0 68.266667 30.72 68.266667 68.266667v102.4z m0-307.2c0 37.546667-30.72 68.266667-68.266667 68.266667H546.133333V307.2c0-37.546667 30.72-68.266667 68.266667-68.266667h102.4c37.546667 0 68.266667 30.72 68.266667 68.266667v102.4z m-68.266667 170.666667h-136.533333v136.533333c0 18.773333 15.36 34.133333 34.133333 34.133333h102.4c18.773333 0 34.133333-15.36 34.133333-34.133333v-102.4c0-18.773333-15.36-34.133333-34.133333-34.133333z m0-307.2h-102.4c-18.773333 0-34.133333 15.36-34.133333 34.133333v136.533333h136.533333c18.773333 0 34.133333-15.36 34.133333-34.133333v-102.4c0-18.773333-15.36-34.133333-34.133333-34.133333zM273.066667 614.4v102.4c0 18.773333 15.36 34.133333 34.133333 34.133333h102.4c18.773333 0 34.133333-15.36 34.133333-34.133333v-136.533333h-136.533333c-18.773333 0-34.133333 15.36-34.133333 34.133333z m443.733333-341.333333h-102.4c-18.773333 0-34.133333 15.36-34.133333 34.133333v136.533333h136.533333c18.773333 0 34.133333-15.36 34.133333-34.133333v-102.4c0-18.773333-15.36-34.133333-34.133333-34.133333z m0 0h-102.4c-18.773333 0-34.133333 15.36-34.133333 34.133333v136.533333h136.533333c18.773333 0 34.133333-15.36 34.133333-34.133333v-102.4c0-18.773333-15.36-34.133333-34.133333-34.133333z" fill="#3399FF" p-id="7395"></path></svg>